# xmcd
#
# Track frame offsets:
#	150
#	17026
#	33708
#	48883
#	65626
#	83942
#	99349
#	114528
#	126026
#	140880
#	155922
#	175278
#
# Disc length: 2470 seconds
# Revision: 0
# Processed by: cddbd v1.5.2PL0 Copyright (c) Steve Scherf et al.
# Submitted via: dBpowerAMP V12.0
#
DISCID=aa09a40c
DTITLE=Alligator Jackson - Swamp Justice
DYEAR=2006
DGENRE=Southern Rock
TTITLE0=Swamp Justice
TTITLE1=Gunfire In Hazard
TTITLE2=Hanging Judge
TTITLE3=Mr Bouncer
TTITLE4=Jenny
TTITLE5=Liquid Courage
TTITLE6=Hell's Breaking Loose
TTITLE7=Starin' Down the Wolf
TTITLE8=Enjoy the Ride
TTITLE9=Gunfighter
TTITLE10=Bad Attitude
TTITLE11=Beer Truck (bonus track)
EXTD=
EXTT0=
EXTT1=
EXTT2=
EXTT3=
EXTT4=
EXTT5=
EXTT6=
EXTT7=
EXTT8=
EXTT9=
EXTT10=
EXTT11=
PLAYORDER=
